<svg width="45" height="44" viewBox="0 0 45 44" fill="none" xmlns="http://www.w3.org/2000/svg">
<path d="M22.25 0C10.0997 0 0.25 9.84974 0.25 22C0.25 34.1503 10.0997 44 22.25 44C33.151 44 42.2002 36.0716 43.9458 25.6667H43.7879C42.1598 31.9925 36.4174 36.6667 29.5833 36.6667C21.4832 36.6667 14.9167 30.1002 14.9167 22C14.9167 13.8998 21.4832 7.33333 29.5833 7.33333C36.4174 7.33333 42.1598 12.0075 43.7879 18.3333H43.9458C42.2002 7.92838 33.151 0 22.25 0Z" fill="#A4BCFD"/>
<path d="M0.25 22C0.25 9.84974 10.0997 0 22.25 0C33.151 0 42.2002 7.92838 43.9458 18.3333H29.1213C27.4931 12.0075 21.7507 7.33333 14.9167 7.33333C6.81649 7.33333 0.25 13.8998 0.25 22Z" fill="#3538CD"/>
<path d="M0.25 22C0.25 34.1503 10.0997 44 22.25 44C33.151 44 42.2002 36.0716 43.9458 25.6667H29.1213C27.4931 31.9925 21.7507 36.6667 14.9167 36.6667C6.81649 36.6667 0.25 30.1002 0.25 22Z" fill="#3538CD"/>
</svg>
