<svg width="28" height="32" viewBox="0 0 28 32" fill="none" xmlns="http://www.w3.org/2000/svg">
<path d="M24.282 16C21.787 18.813 18.1612 20.5833 14.1258 20.5833C10.0903 20.5833 6.46451 18.813 3.96954 16C6.46451 13.187 10.0903 11.4167 14.1258 11.4167C18.1612 11.4167 21.787 13.187 24.282 16Z" fill="white"/>
<path fill-rule="evenodd" clip-rule="evenodd" d="M0.5 25.1667C0.5 17.5727 6.60045 11.4167 14.1257 11.4167C10.0903 11.4167 6.46454 13.187 3.96957 16C6.46454 18.813 10.0903 20.5833 14.1258 20.5833C18.1613 20.5833 21.787 18.813 24.282 16C26.4396 18.4326 27.7515 21.645 27.7515 25.1667V30.3611C27.7515 31.0361 27.2092 31.5833 26.5403 31.5833H1.71118C1.04226 31.5833 0.5 31.0361 0.5 30.3611V25.1667ZM24.282 16C24.282 16 24.282 16 24.282 16V16Z" fill="#7CD4FD"/>
<path fill-rule="evenodd" clip-rule="evenodd" d="M9.01489 19.5833C7.06932 18.7884 5.34709 17.5531 3.96957 16C6.46453 13.187 10.0903 11.4167 14.1258 11.4167C18.1613 11.4167 21.787 13.187 24.282 16C24.282 16 24.282 16 24.282 16C26.4395 13.5673 27.7515 10.3549 27.7515 6.83332V1.63888C27.7515 0.963867 27.2092 0.416659 26.5403 0.416659L1.71118 0.416656C1.04226 0.416656 0.500001 0.963864 0.5 1.63888L0.5 6.83332C0.499999 12.6034 4.02198 17.5433 9.01489 19.5833Z" fill="#0BA5EC"/>
</svg>
